<?xml version="1.0" encoding="utf-8"?>
<!-- Generator: Adobe Illustrator 20.1.0, SVG Export Plug-In . SVG Version: 6.00 Build 0)  -->
<svg version="1.1" id="SesselLogo" xmlns="http://www.w3.org/2000/svg" xmlns:xlink="http://www.w3.org/1999/xlink" x="0px" y="0px"
	 viewBox="0 0 249.9 143.2" style="fill: white;" xml:space="preserve">
<path d="M47.8,46.9c2.3-2.2,4.4-4.2,4.2-2.4c-0.6,5.6-1.3,14.3-1.3,14.3h3.4c0-2.7,1-11,2.4-16.5c1.3-5.6,0.2-10-5.1-11.6
	c-3.3-1.1-6.6,0.7-9,2.7c-1.4,1.2-2.6,2.4-3.2,3.1c-26,29,4.3,33.6,10.6,45.4c1.7,3.3-1.5,4.5-15.8,5.1c-10.9,0.6-5.8,14.1-5.8,14.1
	c3.7-1.7,30.5,2.3,29.2-13.7C56.4,74.3,27,67.7,47.8,46.9"/>
<path d="M183.2,78.4c0.7,8.8,2.3,15.5,6,15.5h0.1c0.3,0,0.6,0,0.8-0.1c0.8,0,1.8-0.2,2.7-0.6c10.5-3.8,21.2-21.3,21.6-22.8l-2.3-0.9
	c0,0-4.4,8.8-12.1,13.7c-3.3,2.2-3.7,1.4-4.1-3.7c-0.1-4.5,0-10.2,0.2-16.3c1.2-1.2,2.6-2.9,3.7-4.9c2.4-4.4,3.1-9.7,2.2-15.7
	c-0.5-3.4-1.5-6.3-2.9-8.7c-1.2-1.9-2.7-3.5-4.4-4.6c-2.9-2-5.6-2-5.7-2c-3.7-0.2-3.9,4.3-4.6,11.7c-0.1,1.2-1.9,20-1.3,35.3
	c-7.4,8.9-21.5,21.4-19.8,5.6c3,0.1,8.3-0.4,10.8-4.5c3.7-5.9,0.7-10-2.7-11c-3.2-1-11.8-0.8-16.9,5.9c-3.2-1.7-11.6-5.5-18.8-1.5
	c-3.7-5.9-6.1-11.5-4.4-15.8c0,0-14.7,2.6-9.6,15.9c-4-1.7-10.4-3.3-16-0.1c-3.7-5.9-6.1-11.5-4.4-15.8c0,0-17.1,3-8,19.2
	c-6.7,8.7-23.3,24.8-21.4,7.7c3,0.1,8.3-0.4,10.8-4.5c3.7-5.9,0.7-10-2.7-11c-4.2-1.3-17.8-0.6-20.3,14.4
	c-3.9,23.3,20.4,18.1,35-4.3c0.8,1.2,1.6,2.4,2.4,3.5c-0.1,0.1-0.1,0.2-0.2,0.2c-0.9,1.7-1.7,3.4-2.2,5.2C94.2,85.3,94,87.2,94,89
	c0,0.9,0.1,1.8,0.2,2.7c0,0.2,0,0.4,0.1,0.7v0.3l0.1,0.2l0.1,0.3v0.2l0.1,0.2c0,0.2,0.1,0.4,0.1,0.7c0.5,1.7,1.3,3.2,2.3,4.5
	c1,1.2,2.2,2.2,3.2,2.8c1.1,0.7,2.1,1.2,2.9,1.4c0.8,0.3,1.6,0.5,2.1,0.6c0.1,0.1,0.2,0.1,0.3,0.1h0.1c4.1,0.9,7.9-0.9,10-1.9
	c10.4-6.1-0.3-18.6-8.1-30.3c4.1-3.6,11.3-1.6,15.5,0.1c0.4,0.8,0.9,1.6,1.4,2.5c0.9,1.4,1.8,2.7,2.7,4c-0.1,0.1-0.1,0.2-0.2,0.2
	c-0.9,1.7-1.7,3.4-2.2,5.2c-0.5,1.9-0.7,3.7-0.7,5.6c0,0.9,0.1,1.8,0.2,2.7c0,0.2,0,0.4,0.1,0.7v0.3l0.1,0.2l0.1,0.3v0.2l0.1,0.2
	c0,0.2,0.1,0.4,0.1,0.7c0.5,1.7,1.3,3.2,2.3,4.5c1,1.2,2.2,2.2,3.2,2.8c1.1,0.7,2.1,1.2,2.9,1.4c0.8,0.3,1.6,0.5,2.1,0.6
	c0.1,0.1,0.2,0.1,0.3,0.1h0.1c4.1,0.9,7.9-0.9,10-1.9c10.4-6.1-0.3-18.6-8.1-30.3c4.3-3.8,12-1.4,16.1,0.3c-1.1,1.9-2,4.2-2.4,7
	C147.4,100.6,168.6,97.3,183.2,78.4 M197.6,39.3c2.8,4.1,2.2,10.5,2.2,11c-0.5,3.9-1.9,6.7-3.5,8.9C196.7,52,197.2,44.8,197.6,39.3
	 M169.9,68.9c3.2,0.1,2.6,3.7,2,4.9c-0.8,1.7-2.9,4.3-8.3,4C165.1,68.6,168.9,68.8,169.9,68.9 M78.4,68.9c3.2,0.1,2.6,3.7,2,4.9
	c-0.8,1.7-2.9,4.3-8.3,4C73.7,68.6,77.4,68.8,78.4,68.9 M106.5,96.9c-0.6,1.8-1.9,1.7-3.5,1.2l-0.5-0.2c-0.7-0.5-1.6-1.1-2.2-1.8
	c-0.7-0.8-1.2-1.8-1.6-3c-0.2-0.6-0.3-1.3-0.5-2c-0.1-0.7-0.2-1.5-0.2-2.2c-0.1-1.5,0.1-3.1,0.4-4.6c0.2-1.1,0.6-2.2,1.1-3.2
	C104.1,87.3,108,92,106.5,96.9 M136.5,96.9c-0.6,1.8-1.9,1.7-3.5,1.2l-0.5-0.2c-0.7-0.5-1.6-1.1-2.2-1.8c-0.7-0.8-1.2-1.8-1.6-3
	c-0.2-0.6-0.3-1.3-0.5-2c-0.1-0.7-0.2-1.5-0.2-2.2c-0.1-1.5,0.1-3.1,0.4-4.6c0.2-1.1,0.6-2.2,1.1-3.2C134.2,87.3,138,92,136.5,96.9"
	/>
<path d="M161.1,110.2c-0.2-0.2-0.6-0.5-1.2-0.8c-0.6-0.4-1-0.8-1.4-1.1c-0.5-0.5-0.8-1-0.8-1.6c0-0.5,0.2-0.9,0.6-1.2
	c0.4-0.3,0.9-0.4,1.5-0.4c0.9,0,1.7,0.2,2.4,0.5l0.3-0.6c-0.8-0.4-1.6-0.6-2.6-0.6s-1.7,0.2-2.2,0.6c-0.5,0.4-0.8,1-0.8,1.8
	c0,0.8,0.3,1.4,0.9,2c0.3,0.3,0.6,0.5,0.8,0.7c0.2,0.2,0.6,0.5,1.2,0.9c0.6,0.4,1,0.8,1.4,1.1c0.5,0.5,0.7,1,0.7,1.6
	c0,0.7-0.2,1.2-0.7,1.5c-0.5,0.4-1.2,0.5-2,0.5c-0.9,0-1.7-0.3-2.4-0.8l-0.4,0.6c0.8,0.6,1.7,0.9,2.8,0.9c1.1,0,2-0.2,2.6-0.7
	c0.6-0.5,0.9-1.2,0.9-2.1c0-0.7-0.3-1.4-0.8-1.9C161.6,110.6,161.3,110.4,161.1,110.2"/>
<path d="M168.6,104.4l-4.6,11.1h0.8l1.6-3.8h4.9l1.6,3.8h0.9l-4.7-11.1H168.6z M171,111h-4.4l1.7-4.1c0.1-0.3,0.3-0.8,0.5-1.3
	c0.1,0.2,0.2,0.7,0.5,1.3L171,111z"/>
<polygon points="176.8,104.5 176,104.5 176,115.5 181.9,115.5 181.9,114.8 176.8,114.8 "/>
<path d="M188.4,104.3c-1.6,0-2.9,0.5-4,1.6c-1.1,1.1-1.6,2.4-1.6,4c0,1.6,0.5,2.9,1.6,4c1.1,1.1,2.4,1.6,4,1.6s2.9-0.5,4-1.6
	c1.1-1.1,1.6-2.4,1.6-4c0-1.6-0.5-2.9-1.6-4C191.3,104.9,189.9,104.3,188.4,104.3 M191.8,113.5c-0.9,1-2,1.4-3.4,1.4
	c-1.4,0-2.5-0.5-3.4-1.4c-0.9-1-1.4-2.1-1.4-3.5c0-1.4,0.5-2.6,1.4-3.5c0.9-1,2-1.4,3.4-1.4c1.4,0,2.5,0.5,3.4,1.4
	c0.9,1,1.3,2.1,1.3,3.5C193.1,111.4,192.7,112.6,191.8,113.5"/>
<path d="M206,112.5c0,0.8,0,1.3,0,1.6c0,0-0.1-0.2-0.3-0.5c-0.2-0.3-0.5-0.6-0.7-0.9l-7.2-8.3h-0.4v11.1h0.8v-7.9c0-0.8,0-1.4,0-1.6
	l0.9,1.1l7.4,8.5h0.4v-11.1H206V112.5z"/>
<path d="M218.9,110v4.5c-0.7,0.3-1.7,0.5-3.1,0.5c-1.3,0-2.4-0.5-3.4-1.5c-1-1-1.4-2.1-1.4-3.5c0-1.4,0.4-2.6,1.3-3.5
	c0.9-1,1.9-1.4,3.2-1.4c1.3,0,2.5,0.2,3.7,0.5l0.2-0.6c-1.2-0.4-2.5-0.6-3.8-0.6c-1.6,0-2.9,0.5-3.9,1.6c-1,1.1-1.5,2.4-1.5,4
	c0,1.6,0.6,3,1.7,4.1c1.1,1.1,2.5,1.6,4.1,1.6s2.9-0.3,3.8-0.8V110H218.9z"/>
</svg>
