<?xml version="1.0" encoding="iso-8859-1"?>
<!-- Generator: Adobe Illustrator 17.1.0, SVG Export Plug-In . SVG Version: 6.00 Build 0)  -->
<!DOCTYPE svg PUBLIC "-//W3C//DTD SVG 1.1//EN" "http://www.w3.org/Graphics/SVG/1.1/DTD/svg11.dtd">
<svg version="1.1" id="Capa_1" xmlns="http://www.w3.org/2000/svg" xmlns:xlink="http://www.w3.org/1999/xlink" x="0px" y="0px"
	 viewBox="0 0 294 294" style="enable-background:new 0 0 294 294;" xml:space="preserve">
<path d="M294,48c0-8.284-6.716-15-15-15H15C6.716,33,0,39.716,0,48v198c0,8.284,6.716,15,15,15h264c8.284,0,15-6.716,15-15V48z
	 M89.083,47.5c4.556,0,8.25,3.694,8.25,8.25S93.64,64,89.083,64s-8.25-3.694-8.25-8.25S84.527,47.5,89.083,47.5z M89.083,80.5
	c4.556,0,8.25,3.694,8.25,8.25S93.64,97,89.083,97s-8.25-3.694-8.25-8.25S84.527,80.5,89.083,80.5z M56.083,47.5
	c4.556,0,8.25,3.694,8.25,8.25S60.64,64,56.083,64s-8.25-3.694-8.25-8.25S51.527,47.5,56.083,47.5z M56.083,80.5
	c4.556,0,8.25,3.694,8.25,8.25S60.64,97,56.083,97s-8.25-3.694-8.25-8.25S51.527,80.5,56.083,80.5z M23.083,47.5
	c4.556,0,8.25,3.694,8.25,8.25S27.64,64,23.083,64s-8.25-3.694-8.25-8.25S18.527,47.5,23.083,47.5z M23.083,80.5
	c4.556,0,8.25,3.694,8.25,8.25S27.64,97,23.083,97s-8.25-3.694-8.25-8.25S18.527,80.5,23.083,80.5z M23.083,113.5
	c4.556,0,8.25,3.694,8.25,8.25S27.64,130,23.083,130s-8.25-3.694-8.25-8.25S18.527,113.5,23.083,113.5z M31,204v33.08
	c0,4.374-3.213,7.92-7.587,7.92h-0.16c-4.374,0-8.253-3.546-8.253-7.92V204h0.166c-4.143,0-7.417-3.357-7.417-7.5
	s3.232-7.5,7.375-7.5H15v-18.08c0-4.374,3.879-7.92,8.253-7.92h0.16c4.374,0,7.587,3.546,7.587,7.92V189c4,0,7.5,3.357,7.5,7.5
	S35,204,31,204z M56.083,113.5c4.556,0,8.25,3.694,8.25,8.25S60.64,130,56.083,130s-8.25-3.694-8.25-8.25S51.527,113.5,56.083,113.5
	z M72,235.987v1.093c0,4.374-2.963,7.92-7.337,7.92h-0.16c-4.374,0-8.503-3.546-8.503-7.92V236h0.166
	c-4.143,0-7.417-3.357-7.417-7.5s3.232-7.5,7.375-7.5H56v-50.08c0-4.374,4.129-7.92,8.503-7.92h0.16c4.374,0,7.337,3.546,7.337,7.92
	v50.093c4,0.133,7.25,3.429,7.25,7.487S76,235.854,72,235.987z M80.833,121.75c0-4.556,3.694-8.25,8.25-8.25s8.25,3.694,8.25,8.25
	S93.64,130,89.083,130S80.833,126.306,80.833,121.75z M114.333,191H113v46.08c0,4.374-2.713,7.92-7.087,7.92h-0.16
	c-4.374,0-8.753-3.546-8.753-7.92v-46.105c-3-0.258-7-3.501-7-7.475s4-7.217,7-7.475v-5.105c0-4.374,4.379-7.92,8.753-7.92h0.16
	c4.374,0,7.087,3.546,7.087,7.92V176h1.333c4.143,0,7.5,3.357,7.5,7.5S118.476,191,114.333,191z M122.083,130
	c-4.556,0-8.25-3.694-8.25-8.25s3.694-8.25,8.25-8.25s8.25,3.694,8.25,8.25S126.64,130,122.083,130z M122.083,97
	c-4.556,0-8.25-3.694-8.25-8.25s3.694-8.25,8.25-8.25s8.25,3.694,8.25,8.25S126.64,97,122.083,97z M122.083,64
	c-4.556,0-8.25-3.694-8.25-8.25s3.694-8.25,8.25-8.25s8.25,3.694,8.25,8.25S126.64,64,122.083,64z M155.166,204H155v33.08
	c0,4.374-3.463,7.92-7.837,7.92h-0.16c-4.374,0-8.003-3.546-8.003-7.92v-33.093c-4-0.133-7.25-3.429-7.25-7.487
	s3.25-7.354,7.25-7.487V170.92c0-4.374,3.629-7.92,8.003-7.92h0.16c4.374,0,7.837,3.546,7.837,7.92V189h0.166
	c4.143,0,7.5,3.357,7.5,7.5S159.309,204,155.166,204z M155.083,130c-4.556,0-8.25-3.694-8.25-8.25s3.694-8.25,8.25-8.25
	s8.25,3.694,8.25,8.25S159.64,130,155.083,130z M155.083,97c-4.556,0-8.25-3.694-8.25-8.25s3.694-8.25,8.25-8.25
	s8.25,3.694,8.25,8.25S159.64,97,155.083,97z M155.083,64c-4.556,0-8.25-3.694-8.25-8.25s3.694-8.25,8.25-8.25s8.25,3.694,8.25,8.25
	S159.64,64,155.083,64z M196,219v18.08c0,4.374-3.213,7.92-7.587,7.92h-0.16c-4.374,0-8.253-3.546-8.253-7.92V219h0.166
	c-4.143,0-7.417-3.357-7.417-7.5s3.232-7.5,7.375-7.5H180v-33.08c0-4.374,3.879-7.92,8.253-7.92h0.16
	c4.374,0,7.587,3.546,7.587,7.92V204c4,0,7.5,3.357,7.5,7.5S200,219,196,219z M238.333,203H237v34.08c0,4.374-2.963,7.92-7.337,7.92
	h-0.16c-4.374,0-8.503-3.546-8.503-7.92v-34.118c-4-0.376-6.75-3.573-6.75-7.462s2.75-7.086,6.75-7.462V170.92
	c0-4.374,4.129-7.92,8.503-7.92h0.16c4.374,0,7.337,3.546,7.337,7.92V188h1.333c4.143,0,7.5,3.357,7.5,7.5S242.476,203,238.333,203z
	 M252.223,64C246.209,64,241,68.875,241,74.89V130h-21v-21.615C220,102.097,215.236,97,208.948,97h-0.23
	C202.43,97,197,102.097,197,108.385V130h-17V47h99v83h-16V74.89c0-6.015-4.542-10.89-10.557-10.89H252.223z M279.333,236H278v1.08
	c0,4.374-2.713,7.92-7.087,7.92h-0.16c-4.374,0-8.753-3.546-8.753-7.92v-1.105c-3-0.258-7-3.501-7-7.475s4-7.217,7-7.475V170.92
	c0-4.374,4.379-7.92,8.753-7.92h0.16c4.374,0,7.087,3.546,7.087,7.92V221h1.333c4.143,0,7.5,3.357,7.5,7.5S283.476,236,279.333,236z
	"/>
<g>
</g>
<g>
</g>
<g>
</g>
<g>
</g>
<g>
</g>
<g>
</g>
<g>
</g>
<g>
</g>
<g>
</g>
<g>
</g>
<g>
</g>
<g>
</g>
<g>
</g>
<g>
</g>
<g>
</g>
</svg>
